# xmcd
#
# Track frame offsets:
#	150
#	28315
#	61072
#	81352
#	107760
#	134452
#	165527
#	186817
#	214867
#	234745
#
# Disc length: 3451 seconds
# Revision: 0
# Processed by: cddbd v1.5.2PL0 Copyright (c) Steve Scherf et al.
# Submitted via: dBpowerAMP V12.0
#
DISCID=8b0d790a
DTITLE=Various Artist - The History of the House Sound of Chicago
DYEAR=1986
DGENRE=House
TTITLE0=Mario Reyes - What Ever Turns You On (Club Mix)
TTITLE1=Farley Jackmaster Funk feat. Ricky Dillard - It's U (House Mix)
TTITLE2=Chip E - Time to Jack
TTITLE3=Femme Fion - Jack the House
TTITLE4=MK II - Used by DJ (Vocal)
TTITLE5=Kenny Jammin Jason and Fast Eddie Smith - Can U Dance
TTITLE6=Fingers Inc - It's Over (Club Mix)
TTITLE7=Dymond - Wild About Your Love (Club Mix)
TTITLE8=Chip E - If You Only Knew (Radio Edit)
TTITLE9=Julian Jumpin Perez feat. Connie V - Jack Me 'Til I Scream (Jumpin' Mix)
EXTD=
EXTT0=
EXTT1=
EXTT2=
EXTT3=
EXTT4=
EXTT5=
EXTT6=
EXTT7=
EXTT8=
EXTT9=
PLAYORDER=
